<svg width="50" height="50" fill="none" xmlns="http://www.w3.org/2000/svg"><path d="M37.5 31.25h-4.167v4.167H37.5m0-12.5h-4.167v4.166H37.5m4.167 12.5H25v-4.166h4.167V31.25H25v-4.167h4.167v-4.166H25V18.75h16.667m-20.834-4.167h-4.166v-4.166h4.166m0 12.5h-4.166V18.75h4.166m0 12.5h-4.166v-4.167h4.166m0 12.5h-4.166v-4.166h4.166M12.5 14.583H8.333v-4.166H12.5m0 12.5H8.333V18.75H12.5m0 12.5H8.333v-4.167H12.5m0 12.5H8.333v-4.166H12.5M25 14.583V6.25H4.167v37.5h41.666V14.583H25Z" fill="#913C03" fill-opacity=".5"/></svg>