<svg width="204" height="46" fill="none" xmlns="http://www.w3.org/2000/svg"><path d="M7.2 35.7H3.75V11.5H7.2v24.2Z" fill="#913C03"/><path d="M13.71 35.7V18.65l3.45 3.45v13.6h-3.45Zm16.65-24.2h3.45v24.75L13.71 15.7v-4.75l16.65 17.1V11.5Zm23.611 3.4h-16.1v-3.4h16.1v3.4Zm-6.35 20.8h-3.45V16.9h3.45v18.8Zm8.477-24.2h13.8V15h-13.8v-3.5Zm12.05 13.85h-12.05v-3.4h12.05v3.4Zm-8.6 6.9h10.35v3.45h-13.8v-3.45h3.45ZM84.755 27l6.25 8.7h-4.05l-6-8.35h-3.75v8.35h-3.45V23.9h8.55c2.55 0 4.65-1.3 4.65-4.45 0-3.15-2.05-4.45-4.55-4.45h-8.65v-3.5h7.45c6.3 0 9.2 3.2 9.2 7.75 0 3.75-2.05 6.8-5.65 7.75Zm14.828 8.7h-3.45V11.5h3.45v24.2Zm4.91-9.72c0-5.2 4-9.44 9.08-9.84v2.76c-3.6.4-6.32 3.4-6.32 7.08 0 3.72 2.72 6.72 6.32 7.08v2.8c-5.08-.4-9.08-4.68-9.08-9.88Zm10.68-9.84c5.08.4 9.08 4.64 9.08 9.84s-4 9.48-9.08 9.88v-2.8c3.56-.36 6.32-3.36 6.32-7.08a7.11 7.11 0 0 0-6.32-7.08v-2.76ZM139.55 27l6.25 8.7h-4.05l-6-8.35H132v8.35h-3.45V23.9h8.55c2.55 0 4.65-1.3 4.65-4.45 0-3.15-2.05-4.45-4.55-4.45h-8.65v-3.5H136c6.3 0 9.2 3.2 9.2 7.75 0 3.75-2.05 6.8-5.65 7.75Zm9.478-15.5h13.8V15h-13.8v-3.5Zm12.05 13.85h-12.05v-3.4h12.05v3.4Zm-8.6 6.9h10.35v3.45h-13.8v-3.45h3.45Zm13.307 3.45 2.65-16.05 2.6 5-1.75 11.05h-3.5Zm22.9-24.75.95 5.5-10.35 19.8-10.35-19.85.9-5.45 9.45 18.25 9.4-18.25Zm1.45 8.6 2.65 16.15h-3.5l-1.8-11.05 2.65-5.1Z" fill="#F2F8F8"/><path stroke="#913C03" stroke-width="3" d="M105.965 12.714h17.04"/></svg>