<svg width="51" height="50" fill="none" xmlns="http://www.w3.org/2000/svg"><path d="M45.73 18.146c2.603-2.604 1.416-5.646 0-7.125l-6.25-6.25c-2.626-2.604-5.647-1.417-7.126 0l-3.541 3.562h-5.396c-3.959 0-6.25 2.084-7.417 4.48l-9.25 9.25v8.333l-1.48 1.458c-2.603 2.625-1.416 5.646 0 7.125l6.25 6.25c1.126 1.125 2.334 1.542 3.48 1.542 1.48 0 2.833-.73 3.646-1.542l5.625-5.646h7.479c3.542 0 5.333-2.208 5.98-4.375 2.353-.625 3.645-2.416 4.166-4.166 3.229-.834 4.437-3.896 4.437-6.042v-6.25h-1.229l.625-.604ZM42.166 25c0 .938-.396 2.083-2.084 2.083H38v2.084c0 .937-.396 2.083-2.083 2.083h-2.084v2.083c0 .938-.395 2.084-2.083 2.084h-9.188L15.73 42.25c-.646.604-1.02.25-1.25.02L8.25 36.063c-.604-.645-.25-1.02-.02-1.25l2.687-2.708v-8.333l4.166-4.167v3.313c0 2.52 1.667 6.25 6.25 6.25 4.584 0 6.25-3.73 6.25-6.25h14.584V25Zm.604-9.813-3.542 3.563H23.417v4.167c0 .937-.396 2.083-2.084 2.083-1.687 0-2.083-1.146-2.083-2.083v-6.25c0-.959.354-4.167 4.167-4.167h7.104l4.75-4.75c.646-.604 1.02-.25 1.25-.02l6.229 6.207c.604.646.25 1.021.02 1.25Z" fill="#913C03" fill-opacity=".5"/></svg>