<svg width="50" height="50" fill="none" xmlns="http://www.w3.org/2000/svg"><path d="M6.25 17.184a10.937 10.937 0 1 1 18.431 7.965 17.213 17.213 0 0 1 9.482 12.763 2.345 2.345 0 0 1-4.632.734 12.5 12.5 0 0 0-24.687 0 2.345 2.345 0 1 1-4.631-.737 17.21 17.21 0 0 1 9.48-12.756 10.916 10.916 0 0 1-3.443-7.97Zm28.125-4.688a9.379 9.379 0 0 1 6.938 15.681 15.654 15.654 0 0 1 8 9.413 2.34 2.34 0 0 1-2.766 2.981 2.35 2.35 0 0 1-1.716-1.606 10.958 10.958 0 0 0-7.881-7.413 2.344 2.344 0 0 1-1.794-2.28v-1.1a2.343 2.343 0 0 1 1.3-2.1 4.687 4.687 0 0 0-2.081-8.888 2.344 2.344 0 0 1 0-4.688Zm-17.188-1.562a6.251 6.251 0 1 0-.282 12.499 6.251 6.251 0 0 0 .282-12.5Z" fill="#913C03" fill-opacity=".5"/></svg>