<svg width="19" height="19" fill="none" xmlns="http://www.w3.org/2000/svg"><path d="M4.204 13.184c-.772-.82-1.187-1.74-1.187-3.232 0-2.625 1.843-4.978 4.522-6.141l.67 1.034C5.708 6.198 5.22 7.953 5.024 9.06c.403-.208.93-.281 1.447-.233 1.353.125 2.42 1.236 2.42 2.617a2.625 2.625 0 0 1-2.626 2.625 2.904 2.904 0 0 1-2.06-.885Zm7.5 0c-.772-.82-1.187-1.74-1.187-3.232 0-2.625 1.843-4.978 4.523-6.141l.67 1.034c-2.502 1.353-2.991 3.108-3.186 4.215.403-.208.93-.281 1.447-.233 1.353.125 2.42 1.236 2.42 2.617a2.625 2.625 0 0 1-2.626 2.625 2.904 2.904 0 0 1-2.06-.885Z" fill="#F2F8F8"/></svg>