<svg width="51" height="50" fill="none" xmlns="http://www.w3.org/2000/svg"><path d="M25.5 17.188a7.812 7.812 0 1 0 0 15.624 7.812 7.812 0 0 0 0-15.624ZM20.812 25a4.687 4.687 0 1 1 9.375 0 4.687 4.687 0 0 1-9.375 0Zm-.25 21.294c1.618.386 3.275.581 4.938.581 1.66-.002 3.316-.2 4.931-.586a2.31 2.31 0 0 0 1.766-1.994l.365-3.328a2.299 2.299 0 0 1 3.229-1.875l3.054 1.338a2.3 2.3 0 0 0 2.611-.54 22.257 22.257 0 0 0 4.931-8.504 2.31 2.31 0 0 0-.836-2.542l-2.701-1.992a2.313 2.313 0 0 1 .005-3.744l2.687-1.985a2.304 2.304 0 0 0 .84-2.546 22.186 22.186 0 0 0-4.934-8.505 2.313 2.313 0 0 0-2.615-.54l-3.04 1.338a2.318 2.318 0 0 1-3.23-1.875l-.37-3.312a2.306 2.306 0 0 0-1.791-2.005 23.628 23.628 0 0 0-4.886-.567c-1.654.02-3.301.21-4.916.567a2.295 2.295 0 0 0-1.792 2l-.37 3.316a2.333 2.333 0 0 1-3.24 1.884l-3.04-1.339a2.333 2.333 0 0 0-2.61.547 22.257 22.257 0 0 0-4.937 8.51 2.31 2.31 0 0 0 .837 2.538l2.696 1.988a2.325 2.325 0 0 1 0 3.745L5.448 28.86a2.308 2.308 0 0 0-.836 2.547 22.27 22.27 0 0 0 4.938 8.516 2.279 2.279 0 0 0 1.683.727c.317 0 .631-.066.923-.193l3.055-1.342a2.32 2.32 0 0 1 3.226 1.875l.368 3.322a2.306 2.306 0 0 0 1.758 1.983Zm8.596-2.914c-2.411.494-4.897.494-7.308 0l-.305-2.719a5.437 5.437 0 0 0-1.781-3.45 5.522 5.522 0 0 0-5.81-.938l-2.509 1.094a19.12 19.12 0 0 1-3.668-6.328L10 29.395a5.45 5.45 0 0 0 0-8.775l-2.22-1.64a19.13 19.13 0 0 1 3.669-6.322l2.5 1.094a5.39 5.39 0 0 0 2.188.459 5.468 5.468 0 0 0 5.417-4.856l.303-2.73c1.21-.234 2.437-.36 3.667-.375 1.222.016 2.44.14 3.64.375l.291 2.719a5.438 5.438 0 0 0 1.777 3.462 5.508 5.508 0 0 0 5.823.938l2.5-1.094a19.08 19.08 0 0 1 3.672 6.324l-2.223 1.634a5.438 5.438 0 0 0 0 8.781l2.221 1.64a19.177 19.177 0 0 1-3.663 6.316l-2.5-1.093a5.426 5.426 0 0 0-7.604 4.39l-.301 2.738Z" fill="#913C03" fill-opacity=".5"/></svg>